<svg width="20" height="66" viewBox="0 0 20 66" fill="none" xmlns="http://www.w3.org/2000/svg">
<path opacity="0.7" fill-rule="evenodd" clip-rule="evenodd" d="M19.4258 1.56403C18.5963 0.0351074 16.3996 0.0414833 15.5789 1.5752L1.09039 28.6512C0.374542 29.989 0 31.4827 0 33V33C0 34.5173 0.374542 36.011 1.09039 37.3488L15.5787 64.4245C16.3992 65.9578 18.5954 65.9635 19.4239 64.4345V64.4345C19.7804 63.7766 19.7751 62.9819 19.4099 62.3287L6.43163 39.1148C5.38708 37.2465 4.8381 35.1419 4.83694 33.0014V33.0014C4.83578 30.855 5.38549 28.7442 6.43347 26.871L19.4122 3.67287C19.7781 3.01879 19.7833 2.22279 19.4258 1.56403V1.56403Z" fill="white"/>
</svg>
