<svg width="21" height="21" viewBox="0 0 21 21" fill="none" xmlns="http://www.w3.org/2000/svg">
<path fill-rule="evenodd" clip-rule="evenodd" d="M15.2381 12.5843C14.9774 12.4539 13.699 11.8256 13.461 11.7381C13.223 11.6515 13.0497 11.6086 12.8756 11.8694C12.7024 12.1284 12.2045 12.7146 12.0531 12.8879C11.9009 13.062 11.7495 13.083 11.4896 12.9535C11.2297 12.8223 10.3915 12.5484 9.39836 11.6629C8.62574 10.9734 8.10336 10.122 7.95199 9.86127C7.80061 9.6014 7.93536 9.46052 8.06574 9.33102C8.18299 9.21465 8.32561 9.0274 8.45599 8.87602C8.58636 8.72377 8.62924 8.61527 8.71586 8.44115C8.80336 8.2679 8.75961 8.11652 8.69399 7.98615C8.62924 7.85577 8.10949 6.57565 7.89249 6.05503C7.68161 5.5484 7.46724 5.61753 7.30799 5.60878C7.15574 5.60178 6.98249 5.60003 6.80924 5.60003C6.63599 5.60003 6.35424 5.66478 6.11624 5.92553C5.87737 6.1854 5.20624 6.81453 5.20624 8.09465C5.20624 9.3739 6.13724 10.6103 6.26762 10.7844C6.39799 10.9576 8.10074 13.5844 10.7091 14.7105C11.3304 14.9783 11.8142 15.1384 12.1914 15.2574C12.8144 15.456 13.3814 15.428 13.8294 15.3606C14.3281 15.2863 15.3676 14.7315 15.5846 14.1243C15.8007 13.517 15.8007 12.9964 15.736 12.8879C15.6712 12.7794 15.498 12.7146 15.2372 12.5843H15.2381ZM10.4939 19.0619H10.4904C8.94111 19.0622 7.42032 18.6457 6.08737 17.8561L5.77237 17.6689L2.49812 18.5281L3.37225 15.3361L3.16662 15.0089C2.30049 13.6302 1.84213 12.0346 1.8445 10.4064C1.84625 5.63765 5.72599 1.75791 10.4974 1.75791C12.8074 1.75791 14.9791 2.65916 16.6119 4.29365C17.4172 5.09566 18.0555 6.0494 18.4898 7.09968C18.9242 8.14997 19.146 9.27596 19.1423 10.4125C19.1406 15.1813 15.2609 19.0619 10.4939 19.0619ZM17.8544 3.05203C16.8903 2.08159 15.7432 1.31213 14.4796 0.788235C13.2159 0.264341 11.8609 -0.00356671 10.493 3.58553e-05C4.75824 3.58553e-05 0.0892499 4.66815 0.0874999 10.4055C0.0848425 12.2314 0.563827 14.0257 1.47612 15.6074L0 21L5.51599 19.5528C7.04188 20.3841 8.75182 20.8197 10.4895 20.8198H10.4939C16.2286 20.8198 20.8976 16.1516 20.8993 10.4134C20.9036 9.04601 20.6366 7.69136 20.114 6.4278C19.5913 5.16425 18.8233 4.01687 17.8544 3.05203Z" fill="black"/>
</svg>
