<svg width="21" height="21" viewBox="0 0 21 21" fill="none" xmlns="http://www.w3.org/2000/svg">
<path fill-rule="evenodd" clip-rule="evenodd" d="M15.2884 12.5843C15.0276 12.4539 13.7493 11.8256 13.5113 11.7381C13.2733 11.6515 13.1 11.6086 12.9259 11.8694C12.7527 12.1284 12.2548 12.7146 12.1034 12.8879C11.9512 13.062 11.7998 13.083 11.5399 12.9535C11.28 12.8223 10.4418 12.5484 9.44866 11.6629C8.67603 10.9734 8.15366 10.122 8.00228 9.86127C7.85091 9.6014 7.98566 9.46052 8.11603 9.33102C8.23328 9.21465 8.37591 9.0274 8.50628 8.87602C8.63666 8.72377 8.67953 8.61527 8.76616 8.44115C8.85366 8.2679 8.80991 8.11652 8.74428 7.98615C8.67953 7.85577 8.15978 6.57565 7.94278 6.05503C7.73191 5.5484 7.51753 5.61753 7.35828 5.60878C7.20603 5.60178 7.03278 5.60003 6.85953 5.60003C6.68628 5.60003 6.40453 5.66478 6.16653 5.92553C5.92766 6.1854 5.25654 6.81453 5.25654 8.09465C5.25654 9.3739 6.18753 10.6103 6.31791 10.7844C6.44828 10.9576 8.15103 13.5844 10.7594 14.7105C11.3807 14.9783 11.8645 15.1384 12.2417 15.2574C12.8647 15.456 13.4316 15.428 13.8796 15.3606C14.3784 15.2863 15.4179 14.7315 15.6349 14.1243C15.851 13.517 15.851 12.9964 15.7863 12.8879C15.7215 12.7794 15.5483 12.7146 15.2875 12.5843H15.2884ZM10.5442 19.0619H10.5407C8.99141 19.0622 7.47061 18.6457 6.13766 17.8561L5.82266 17.6689L2.54841 18.5281L3.42254 15.3361L3.21691 15.0089C2.35079 13.6302 1.89242 12.0346 1.89479 10.4064C1.89654 5.63765 5.77628 1.75791 10.5477 1.75791C12.8577 1.75791 15.0294 2.65916 16.6621 4.29365C17.4675 5.09566 18.1058 6.0494 18.5401 7.09968C18.9745 8.14997 19.1963 9.27596 19.1926 10.4125C19.1909 15.1813 15.3111 19.0619 10.5442 19.0619V19.0619ZM17.9046 3.05203C16.9406 2.08159 15.7935 1.31213 14.5299 0.788235C13.2662 0.264341 11.9112 -0.00356671 10.5433 3.58553e-05C4.80854 3.58553e-05 0.139543 4.66815 0.137793 10.4055C0.135135 12.2314 0.61412 14.0257 1.52642 15.6074L0.050293 21L5.56629 19.5528C7.09217 20.3841 8.80211 20.8197 10.5398 20.8198H10.5442C16.2789 20.8198 20.9479 16.1516 20.9496 10.4134C20.9539 9.04601 20.6869 7.69136 20.1643 6.4278C19.6416 5.16425 18.8736 4.01687 17.9046 3.05203" fill="white"/>
</svg>
