<svg width="24" height="23" viewBox="0 0 24 23" fill="none" xmlns="http://www.w3.org/2000/svg">
<path d="M3.5278 2.62843L3.52783 2.6284C4.41239 1.74386 5.52995 1.3577 6.88259 1.17585C8.19103 0.999955 9.85865 0.999975 11.9453 1L12.0194 1H12.7794L12.8536 1C14.9402 0.999975 16.6078 0.999955 17.9162 1.17585C19.2689 1.3577 20.3864 1.74386 21.271 2.62841C22.1555 3.51297 22.5417 4.63052 22.7236 5.98317C22.8995 7.29162 22.8994 8.95924 22.8994 11.0459V11.12V11.88V11.9541C22.8994 14.0408 22.8995 15.7084 22.7236 17.0168C22.5417 18.3695 22.1555 19.487 21.271 20.3715C21.271 20.3715 21.271 20.3716 21.271 20.3716M3.5278 2.62843L20.5639 19.6644M3.5278 2.62843C2.64327 3.51301 2.25711 4.63056 2.07527 5.98321C1.89937 7.29165 1.89939 8.95926 1.89941 11.0458L1.89941 11.12V11.88L1.89941 11.9542C1.89939 14.0408 1.89937 15.7084 2.07527 17.0168C2.25711 18.3695 2.64328 19.487 3.52782 20.3716L3.52783 20.3716C4.41241 21.2561 5.52997 21.6423 6.88262 21.8241C8.19106 22 9.85868 22 11.9453 22H12.0194H12.7794H12.8535C14.9402 22 16.6078 22 17.9162 21.8241C19.2689 21.6423 20.3864 21.2561 21.271 20.3716M3.5278 2.62843L21.271 20.3716M21.271 20.3716L20.5639 19.6644M20.5639 19.6644C19.2283 21 17.0785 21 12.7794 21H12.0194C7.72032 21 5.57053 21 4.23493 19.6644C2.89941 18.3289 2.89941 16.1791 2.89941 11.88V11.12C2.89941 6.82091 2.89941 4.67111 4.23493 3.33551C5.57048 2 7.72028 2 12.0194 2H12.7794C17.0785 2 19.2283 2 20.5639 3.33551C21.8994 4.67107 21.8994 6.82087 21.8994 11.12V11.88C21.8994 16.1791 21.8994 18.3289 20.5639 19.6644ZM12.2119 13.2575V8.77918H12.2544V10.9062C12.2544 11.1901 12.375 11.4606 12.5862 11.6502C12.7173 11.768 12.8757 11.8477 13.0445 11.884C12.8786 11.9196 12.7227 11.9972 12.5928 12.1118C12.3777 12.3017 12.2544 12.5748 12.2544 12.8617V14.6525C10.7151 14.5033 9.55359 13.8895 8.72957 12.9333C7.90457 11.9759 7.34627 10.5912 7.16565 8.77922H7.33265C7.66035 12.0485 9.27655 13.8045 10.9694 14.2277C11.2681 14.3024 11.5846 14.2353 11.8273 14.0458C12.07 13.8562 12.2119 13.5655 12.2119 13.2575ZM14.6524 12.2075C14.2804 12.0528 13.8891 11.9438 13.4869 11.8842C13.8586 11.8279 14.2138 11.7014 14.5456 11.527C14.5303 11.604 14.524 11.6836 14.5274 11.7641C14.5341 11.9224 14.5781 12.0737 14.6524 12.2075ZM16.9603 14.1873C17.0798 14.348 17.1898 14.5152 17.2898 14.6879H17.2267C17.1475 14.5159 17.0586 14.3487 16.9603 14.1873Z" stroke="black" stroke-width="2" stroke-linejoin="round"/>
</svg>
