<svg width="23" height="23" viewBox="0 0 23 23" fill="none" xmlns="http://www.w3.org/2000/svg">
<path d="M15.1434 13.03C14.8512 12.7138 14.5229 12.4329 14.1654 12.193C15.6071 11.0785 16.6176 9.49829 17.0244 7.722C17.055 7.59346 17.0598 7.46013 17.0385 7.32973C17.0172 7.19933 16.9703 7.07444 16.9005 6.96227C16.8307 6.8501 16.7393 6.75287 16.6317 6.67622C16.5241 6.59956 16.4024 6.54499 16.2735 6.51565C16.1447 6.48632 16.0114 6.48281 15.8812 6.50532C15.751 6.52783 15.6265 6.57592 15.515 6.6468C15.4035 6.71769 15.3072 6.80997 15.2316 6.91831C15.1559 7.02665 15.1025 7.1489 15.0744 7.278C14.8852 8.10905 14.5169 8.88881 13.9953 9.56291C13.4737 10.237 12.8114 10.7892 12.0544 11.181V7.502C12.0481 7.42855 12.0333 7.35607 12.0104 7.286C12.0036 7.22811 11.9919 7.1709 11.9754 7.115C11.9328 7.02366 11.8765 6.93935 11.8084 6.865C11.7904 6.845 11.7814 6.817 11.7624 6.797C11.6892 6.7294 11.6063 6.67311 11.5164 6.63C11.4904 6.616 11.4714 6.593 11.4444 6.582C11.368 6.5564 11.2887 6.53995 11.2084 6.533C11.1587 6.51852 11.1078 6.50815 11.0564 6.502L10.4024 6.5H10.3994C10.1651 6.49834 9.93778 6.57941 9.7574 6.72893C9.57702 6.87844 9.45519 7.08682 9.41336 7.31734C9.37153 7.54787 9.4124 7.78576 9.52875 7.98911C9.6451 8.19247 9.82948 8.34824 10.0494 8.429V13.319C8.46472 11.6741 7.41533 9.5879 7.03941 7.335C6.99512 7.0735 6.84876 6.8403 6.63253 6.68671C6.41631 6.53311 6.14792 6.47171 5.88641 6.516C5.62491 6.56029 5.39171 6.70665 5.23812 6.92288C5.08453 7.13911 5.02312 7.4075 5.06741 7.669C5.65175 11.1517 7.59378 14.2604 10.4674 16.313C10.5085 16.3374 10.5513 16.3588 10.5954 16.377C10.6302 16.3973 10.6663 16.4153 10.7034 16.431C10.8148 16.4756 10.9334 16.4997 11.0534 16.502C11.2006 16.5002 11.3455 16.4653 11.4774 16.4C11.4874 16.395 11.4984 16.398 11.5084 16.393C11.5968 16.3467 11.6777 16.2874 11.7484 16.217C11.7634 16.203 11.7724 16.187 11.7864 16.172C11.851 16.1012 11.9049 16.0213 11.9464 15.935C11.9602 15.9066 11.9725 15.8776 11.9834 15.848C12.0273 15.7378 12.051 15.6206 12.0534 15.502V13.376C12.6735 13.5577 13.2322 13.9052 13.6694 14.381L15.3164 16.178C15.4957 16.3735 15.7453 16.4897 16.0103 16.5011C16.2753 16.5126 16.5339 16.4183 16.7294 16.239C16.9249 16.0597 17.0411 15.8101 17.0526 15.5451C17.064 15.2801 16.9697 15.0215 16.7904 14.826L15.1434 13.03ZM14.4724 0.5H8.33641C2.17941 0.5 0.399414 2.278 0.399414 8.427V14.563C0.399414 20.72 2.17741 22.5 8.32641 22.5H14.4624C20.6194 22.5 22.3994 20.722 22.3994 14.573V8.437C22.3994 2.28 20.6214 0.5 14.4724 0.5ZM20.3994 14.573C20.3994 19.613 19.5114 20.5 14.4614 20.5H8.32741C3.28641 20.5 2.39941 19.612 2.39941 14.562V8.428C2.39941 3.387 3.28741 2.5 8.33741 2.5H14.4724C19.5124 2.5 20.3994 3.388 20.3994 8.438V14.573Z" fill="black"/>
</svg>
