<svg width="23" height="23" viewBox="0 0 23 23" fill="none" xmlns="http://www.w3.org/2000/svg">
<path d="M2.62838 2.62843L2.62842 2.6284C3.51298 1.74386 4.63053 1.3577 5.98318 1.17585C7.29162 0.999955 8.95923 0.999975 11.0458 1L11.12 1H11.88L11.9542 1C14.0408 0.999975 15.7084 0.999955 17.0168 1.17585C18.3695 1.3577 19.487 1.74386 20.3715 2.62841C21.2561 3.51297 21.6423 4.63052 21.8241 5.98318C22 7.29162 22 8.95924 22 11.0459V11.12V11.88V11.9541C22 14.0408 22 15.7084 21.8241 17.0168C21.6423 18.3695 21.2561 19.487 20.3716 20.3715C20.3716 20.3715 20.3715 20.3716 20.3715 20.3716M2.62838 2.62843L20.3715 20.3716M2.62838 2.62843C1.74386 3.51301 1.3577 4.63056 1.17585 5.98321C0.999955 7.29165 0.999975 8.95926 1 11.0458L1 11.12V11.88L1 11.9542C0.999975 14.0408 0.999955 15.7084 1.17585 17.0168C1.3577 18.3695 1.74386 19.487 2.62841 20.3715L2.62842 20.3716C3.513 21.2561 4.63055 21.6423 5.98321 21.8241C7.29165 22 8.95927 22 11.0459 22H11.12H11.88H11.9541C14.0408 22 15.7084 22 17.0168 21.8241C18.3695 21.6423 19.487 21.2561 20.3715 20.3716M2.62838 2.62843L20.3715 20.3716M11.3125 13.2575V8.77918H11.355V10.9062C11.355 11.1901 11.4756 11.4606 11.6868 11.6502C11.8179 11.768 11.9763 11.8477 12.1451 11.884C11.9792 11.9196 11.8233 11.9972 11.6934 12.1118C11.4782 12.3017 11.355 12.5748 11.355 12.8617V14.6525C9.8157 14.5033 8.65418 13.8895 7.83015 12.9333C7.00516 11.9759 6.44687 10.5912 6.26624 8.77922H6.43324C6.76093 12.0485 8.37714 13.8045 10.07 14.2277C10.3687 14.3024 10.6852 14.2353 10.9279 14.0458C11.1706 13.8562 11.3125 13.5655 11.3125 13.2575ZM13.753 12.2075C13.381 12.0528 12.9897 11.9438 12.5875 11.8842C12.9592 11.8279 13.3144 11.7014 13.6462 11.527C13.6309 11.604 13.6246 11.6836 13.628 11.7641C13.6347 11.9224 13.6786 12.0737 13.753 12.2075ZM16.0609 14.1873C16.1803 14.348 16.2903 14.5152 16.3904 14.6879H16.3273C16.2481 14.5159 16.1591 14.3487 16.0609 14.1873Z" stroke="white" stroke-width="2" stroke-linejoin="round"/>
</svg>
