<svg width="23" height="22" viewBox="0 0 23 22" fill="none" xmlns="http://www.w3.org/2000/svg">
<path d="M15.244 12.53C14.9518 12.2138 14.6235 11.9329 14.266 11.693C15.7077 10.5785 16.7182 8.99829 17.125 7.222C17.1556 7.09346 17.1603 6.96013 17.1391 6.82973C17.1178 6.69933 17.0709 6.57444 17.0011 6.46227C16.9313 6.3501 16.8399 6.25287 16.7323 6.17622C16.6247 6.09956 16.503 6.04499 16.3741 6.01565C16.2453 5.98632 16.1119 5.98281 15.9817 6.00532C15.8516 6.02783 15.7271 6.07592 15.6156 6.1468C15.5041 6.21769 15.4078 6.30997 15.3321 6.41831C15.2565 6.52665 15.2031 6.6489 15.175 6.778C14.9857 7.60905 14.6175 8.38881 14.0959 9.06291C13.5743 9.737 12.9119 10.2892 12.155 10.681V7.002C12.1487 6.92855 12.1339 6.85607 12.111 6.786C12.1042 6.72811 12.0925 6.6709 12.076 6.615C12.0334 6.52366 11.9771 6.43935 11.909 6.365C11.891 6.345 11.882 6.317 11.863 6.297C11.7898 6.2294 11.7069 6.17311 11.617 6.13C11.591 6.116 11.572 6.093 11.545 6.082C11.4685 6.0564 11.3893 6.03995 11.309 6.033C11.2593 6.01852 11.2084 6.00815 11.157 6.002L10.503 6H10.5C10.2657 5.99834 10.0384 6.07941 9.85798 6.22893C9.6776 6.37844 9.55577 6.58682 9.51395 6.81734C9.47212 7.04787 9.51298 7.28576 9.62933 7.48911C9.74569 7.69247 9.93007 7.84824 10.15 7.929V12.819C8.5653 11.1741 7.51591 9.0879 7.14 6.835C7.09571 6.5735 6.94935 6.3403 6.73312 6.18671C6.51689 6.03311 6.2485 5.97171 5.987 6.016C5.7255 6.06029 5.4923 6.20665 5.33871 6.42288C5.18511 6.63911 5.12371 6.9075 5.168 7.169C5.75233 10.6517 7.69437 13.7604 10.568 15.813C10.6091 15.8374 10.6518 15.8588 10.696 15.877C10.7308 15.8973 10.7669 15.9153 10.804 15.931C10.9154 15.9756 11.034 15.9997 11.154 16.002C11.3012 16.0002 11.4461 15.9653 11.578 15.9C11.588 15.895 11.599 15.898 11.609 15.893C11.6974 15.8467 11.7783 15.7874 11.849 15.717C11.864 15.703 11.873 15.687 11.887 15.672C11.9515 15.6012 12.0054 15.5213 12.047 15.435C12.0608 15.4066 12.0731 15.3776 12.084 15.348C12.1279 15.2378 12.1516 15.1206 12.154 15.002V12.876C12.7741 13.0577 13.3328 13.4052 13.77 13.881L15.417 15.678C15.5963 15.8735 15.8459 15.9897 16.1109 16.0011C16.3759 16.0126 16.6345 15.9183 16.83 15.739C17.0255 15.5597 17.1417 15.3101 17.1531 15.0451C17.1646 14.7801 17.0703 14.5215 16.891 14.326L15.244 12.53ZM14.573 0H8.437C2.28 0 0.5 1.778 0.5 7.927V14.063C0.5 20.22 2.278 22 8.427 22H14.563C20.72 22 22.5 20.222 22.5 14.073V7.937C22.5 1.78 20.722 0 14.573 0ZM20.5 14.073C20.5 19.113 19.612 20 14.562 20H8.428C3.387 20 2.5 19.112 2.5 14.062V7.928C2.5 2.887 3.388 2 8.438 2H14.573C19.613 2 20.5 2.888 20.5 7.938V14.073Z" fill="white"/>
</svg>
